<svg xmlns="http://www.w3.org/2000/svg" viewBox="904 390 112.116 135.65"><defs><style>.a{fill:#dceff5;}</style></defs><path class="a" d="M86.1,95c-.6.1-1.1.1-1.7.2a134.45,134.45,0,0,1,1.4,14.7c.3,13.3-2.3,21.8-7.4,23.6a6.448,6.448,0,0,1-2,.3c-4.9,0-11.4-5.1-18.2-14.5-1.8-2.4-3.5-5.1-5.2-7.9-.5.4-1,.7-1.5,1.1,1.7,2.8,3.5,5.5,5.2,7.9C65.2,132,73,137.3,79,135.2,87.6,132.1,89.1,115.3,86.1,95Z" transform="translate(904.004 390)"/><path class="a" d="M36.3,74.5c-1.7-5.1-3.3-10.2-4.6-15.2-.5.6-.9,1.2-1.4,1.8,1.2,4.6,2.6,9.2,4.2,13.9,1,2.8,2,5.6,3,8.3.7.2,1.5.5,2.2.7C38.6,81,37.4,77.8,36.3,74.5Z" transform="translate(904.004 390)"/><path class="a" d="M28.5,54a21.965,21.965,0,0,0,1.4-1.8c-.5-2.1-.9-4.1-1.3-6.1a11.019,11.019,0,0,0-1.8.2C27.4,48.8,27.9,51.4,28.5,54Z" transform="translate(904.004 390)"/><path class="a" d="M75.9,61c1.7,5.1,3.3,10.2,4.6,15.1.5-.6.9-1.2,1.4-1.8-1.2-4.7-2.6-9.4-4.2-14-.9-2.8-2-5.6-3-8.3-.7-.2-1.4-.5-2.2-.7C73.6,54.5,74.8,57.8,75.9,61Z" transform="translate(904.004 390)"/><path class="a" d="M27.8,40.4a134.449,134.449,0,0,1-1.4-14.7C26,12.4,28.7,3.9,33.8,2.1a6.448,6.448,0,0,1,2-.3C40.7,1.8,47.2,7,54,16.3c1.8,2.4,3.5,5.1,5.2,7.9.5-.3.9-.7,1.4-1C52.3,9.5,43.2,0,35.8,0a7.457,7.457,0,0,0-2.6.4c-6,2-9,10.8-8.6,25.3A115.027,115.027,0,0,0,26,40.5C26.6,40.5,27.2,40.4,27.8,40.4Z" transform="translate(904.004 390)"/><path class="a" d="M48.5,107.3a14.309,14.309,0,0,0,1.5-1.1,155.71,155.71,0,0,1-7.4-15.3c-.8-.2-1.5-.4-2.2-.6A179.645,179.645,0,0,0,48.5,107.3Z" transform="translate(904.004 390)"/><path class="a" d="M83.6,81.6c-.5.6-.9,1.1-1.4,1.7.5,2.1.9,4.1,1.3,6.1.6,0,1.1-.1,1.7-.1C84.7,86.7,84.1,84.2,83.6,81.6Z" transform="translate(904.004 390)"/><path class="a" d="M63.5,28.4c-.5.3-.9.7-1.4,1a165.382,165.382,0,0,1,7.4,15.2c.7.2,1.4.4,2.2.6A174.848,174.848,0,0,0,63.5,28.4Z" transform="translate(904.004 390)"/><path class="a" d="M10.6,91.9a97.881,97.881,0,0,1,5.2-11.7c-.5-.3-1-.6-1.6-.9A103.727,103.727,0,0,0,8.9,91.4a8.8,8.8,0,0,0-.5,1.5c.5.3,1.1.6,1.6.9C10.2,93.1,10.4,92.5,10.6,91.9Z" transform="translate(904.004 390)"/><path class="a" d="M36.4,50.5c1.4-1.6,2.8-3.1,4.2-4.6-.8,0-1.6-.1-2.4-.1-1,1.1-2.1,2.3-3.1,3.5a159.072,159.072,0,0,0-18,24.9c.5.3,1,.6,1.6.9A152.79,152.79,0,0,1,36.4,50.5Z" transform="translate(904.004 390)"/><path class="a" d="M91.5,63.8h0a13.029,13.029,0,0,0,1.5,1h0c.7-1.2,1.4-2.4,2.1-3.5a14,14,0,0,1-1.6-1C92.9,61.5,92.2,62.6,91.5,63.8Z" transform="translate(904.004 390)"/><path class="a" d="M43.5,40.3c.8.1,1.6.1,2.4.2C62.5,24.5,80.4,14,92.1,14a12.724,12.724,0,0,1,8.6,2.8c6.8,6,5,20.5-4.3,38.4a14,14,0,0,1,1.6,1c9.7-18.7,11.4-34.1,3.9-40.7-5.6-4.9-15.5-4.2-27.8,1.9C64.2,22.3,53.6,30.3,43.5,40.3Z" transform="translate(904.004 390)"/><path class="a" d="M98.6,59C89,52.7,75.5,47.6,60.7,44.6A129.959,129.959,0,0,0,35.9,42a77.948,77.948,0,0,0-16.6,1.6C8.2,45.9,1.4,50.6.2,56.7c-2.6,13,20,28,51.3,34.2,4.8.9,9.4,1.6,14,2,.6-.5,1.1-1.1,1.7-1.7A119.971,119.971,0,0,1,51.9,89C18.4,82.5-.1,67.3,2,57c1.6-7.9,15.2-13.2,33.9-13.2a132.964,132.964,0,0,1,24.4,2.5c14.6,2.9,27.8,7.9,37.3,14.1,9.1,6,13.7,12.5,12.6,18-1.1,5.4-7.7,9.7-18.2,11.8a84.081,84.081,0,0,1-15.7,1.4H74.8c-.6.6-1.1,1.2-1.7,1.8h3.1c19.9,0,33.9-5.7,35.7-14.6C113.2,72.5,108.5,65.4,98.6,59Z" transform="translate(904.004 390)"/><path class="a" d="M20,123.2a14.351,14.351,0,0,1-9.7-3.2c-5.2-4.6-6.1-13.5-2.6-25.2.5.3,1.1.6,1.6.9-3.2,10.8-2.4,18.9,2.1,22.9,5.1,4.4,14.8,3.5,26.6-2.6,12.3-6.3,25.6-17.3,37.6-31A165.986,165.986,0,0,0,90.3,65.5a14.309,14.309,0,0,1,1.5,1.1A158.437,158.437,0,0,1,76.9,86.2c-12.1,13.9-25.7,25-38.2,31.4C31.7,121.3,25.4,123.2,20,123.2Z" transform="translate(904.004 390)"/></svg>